<?xml version="1.0" standalone="no"?>
<!DOCTYPE svg PUBLIC "-//W3C//DTD SVG 20010904//EN"
 "http://www.w3.org/TR/2001/REC-SVG-20010904/DTD/svg10.dtd">
<svg version="1.0" xmlns="http://www.w3.org/2000/svg"
 width="687.000000pt" height="385.000000pt" viewBox="0 0 687.000000 385.000000"
 preserveAspectRatio="xMidYMid meet">

<g transform="translate(0.000000,385.000000) scale(0.100000,-0.100000)"
fill="#000000" stroke="none">
<path d="M1710 3690 c0 -27 5 -50 10 -50 6 0 10 9 10 20 0 26 14 25 33 -2 18
-27 33 -18 18 10 -7 13 -7 22 1 30 20 20 1 42 -37 42 l-35 0 0 -50z m53 25 c1
-5 -6 -11 -15 -13 -11 -2 -18 3 -18 13 0 17 30 18 33 0z"/>
<path d="M2310 3690 c0 -27 5 -50 10 -50 6 0 10 23 10 50 0 28 -4 50 -10 50
-5 0 -10 -22 -10 -50z"/>
<path d="M4310 3680 l0 -51 36 3 c46 4 62 26 48 65 -8 23 -16 29 -47 31 l-37
3 0 -51z m68 4 c3 -23 -21 -49 -38 -39 -5 3 -10 20 -10 36 0 26 3 30 23 27 13
-2 23 -11 25 -24z"/>
<path d="M4535 3720 c3 -5 8 -10 11 -10 2 0 4 5 4 10 0 6 -5 10 -11 10 -5 0
-7 -4 -4 -10z"/>
<path d="M4620 3716 c0 -8 -10 -16 -22 -18 -18 -2 -23 -10 -23 -33 0 -27 4
-30 33 -33 l32 -3 0 50 c0 28 -4 51 -10 51 -5 0 -10 -6 -10 -14z m0 -57 c0
-20 -15 -26 -25 -9 -9 15 3 43 15 35 5 -3 10 -15 10 -26z"/>
<path d="M4780 3720 c0 -5 5 -10 10 -10 6 0 10 5 10 10 0 6 -4 10 -10 10 -5 0
-10 -4 -10 -10z"/>
<path d="M1816 3704 c-19 -18 -19 -20 -6 -45 11 -20 45 -26 55 -10 3 5 -5 12
-17 14 l-23 4 23 2 c24 1 29 20 10 39 -16 16 -23 15 -42 -4z"/>
<path d="M1939 3704 c-10 -13 -10 -17 2 -25 8 -5 20 -9 27 -9 7 0 11 -4 8 -9
-3 -5 -16 -7 -28 -3 -14 3 -19 2 -14 -6 10 -17 53 -15 59 2 6 15 -6 29 -33 39
-10 3 -7 6 8 6 13 1 20 5 17 11 -9 15 -31 12 -46 -6z"/>
<path d="M2027 3713 c-13 -12 -7 -22 11 -17 11 4 9 0 -7 -14 -29 -24 -21 -41
19 -40 30 1 32 9 14 66 -4 13 -26 16 -37 5z m33 -47 c0 -11 -19 -15 -25 -6 -3
5 1 10 9 10 9 0 16 -2 16 -4z"/>
<path d="M2095 3711 c-3 -2 -5 -19 -5 -38 0 -39 17 -45 22 -6 4 39 28 42 28 4
0 -17 5 -31 10 -31 6 0 10 14 10 30 0 17 5 30 10 30 6 0 10 -13 10 -30 0 -16
5 -30 11 -30 6 0 9 16 7 37 -3 38 -3 38 -51 38 -26 1 -50 -1 -52 -4z"/>
<path d="M2220 3663 c0 -29 5 -53 10 -53 6 0 10 6 10 14 0 8 10 16 23 18 14 2
23 11 25 27 4 29 -11 46 -43 46 -23 1 -25 -2 -25 -52z m50 17 c0 -11 -7 -20
-15 -20 -8 0 -15 9 -15 20 0 11 7 20 15 20 8 0 15 -9 15 -20z"/>
<path d="M2352 3708 c-25 -25 -6 -68 29 -68 10 0 21 5 25 12 5 8 0 9 -14 6
-12 -4 -25 -2 -28 3 -3 5 6 9 20 9 15 0 26 6 26 13 0 16 -20 37 -35 37 -6 0
-16 -5 -23 -12z m35 -14 c-3 -3 -12 -4 -19 -1 -8 3 -5 6 6 6 11 1 17 -2 13 -5z"/>
<path d="M4906 3712 c-9 -15 6 -82 18 -82 9 0 12 31 7 83 -1 10 -19 9 -25 -1z"/>
<path d="M4423 3665 c0 -22 2 -30 4 -17 2 12 2 30 0 40 -3 9 -5 -1 -4 -23z"/>
<path d="M4450 3696 c0 -1 5 -17 11 -35 12 -34 34 -41 42 -13 2 9 8 25 12 35
4 10 3 17 -3 17 -6 0 -14 -10 -18 -22 l-7 -23 -10 23 c-8 18 -27 31 -27 18z"/>
<path d="M4530 3665 c0 -19 5 -35 10 -35 6 0 10 16 10 35 0 19 -4 35 -10 35
-5 0 -10 -16 -10 -35z"/>
<path d="M4664 3686 c-11 -29 1 -51 29 -54 15 -2 27 2 27 8 0 7 -8 9 -20 5
-11 -4 -20 -2 -20 4 0 6 9 11 21 11 14 0 19 5 17 18 -4 22 -46 29 -54 8z m36
-6 c0 -5 -4 -10 -10 -10 -5 0 -10 5 -10 10 0 6 5 10 10 10 6 0 10 -4 10 -10z"/>
<path d="M4780 3665 c0 -19 5 -35 10 -35 6 0 10 16 10 35 0 19 -4 35 -10 35
-5 0 -10 -16 -10 -35z"/>
<path d="M4820 3665 c0 -41 17 -47 22 -7 4 33 22 32 26 -3 4 -29 22 -34 22 -6
0 37 -12 51 -41 51 -26 0 -29 -3 -29 -35z"/>
<path d="M4954 3686 c-12 -31 0 -51 31 -51 27 0 30 3 30 30 0 25 -4 30 -28 33
-17 2 -29 -2 -33 -12z m46 -27 c0 -20 -15 -26 -25 -9 -9 15 3 43 15 35 5 -3
10 -15 10 -26z"/>
<path d="M1890 3680 c0 -5 7 -10 15 -10 8 0 15 5 15 10 0 6 -7 10 -15 10 -8 0
-15 -4 -15 -10z"/>
<path d="M2240 3520 c0 -27 5 -50 10 -50 6 0 10 23 10 50 0 28 -4 50 -10 50
-5 0 -10 -22 -10 -50z"/>
<path d="M2280 3560 c0 -5 5 -10 10 -10 6 0 10 5 10 10 0 6 -4 10 -10 10 -5 0
-10 -4 -10 -10z"/>
<path d="M1787 3548 c-7 -21 4 -78 17 -78 9 0 12 30 7 83 -1 12 -18 8 -24 -5z"/>
<path d="M4852 3538 c-12 -15 -2 -80 14 -85 7 -2 10 14 9 42 -2 52 -7 61 -23
43z"/>
<path d="M1710 3530 c0 -7 7 -10 15 -6 8 3 15 2 15 -3 0 -5 -9 -11 -21 -14
-31 -8 -18 -31 20 -35 31 -3 32 -2 29 30 -2 28 -7 34 -30 36 -17 2 -28 -2 -28
-8z m35 -40 c-3 -5 -10 -10 -16 -10 -5 0 -9 5 -9 10 0 6 7 10 16 10 8 0 12 -4
9 -10z"/>
<path d="M1874 3529 c-4 -7 4 -20 17 -31 24 -19 24 -19 2 -13 -14 4 -23 2 -23
-4 0 -6 14 -11 30 -11 23 0 30 4 30 20 0 11 -6 20 -14 20 -8 0 -18 5 -22 11
-4 8 0 9 15 4 12 -4 21 -2 21 4 0 15 -47 14 -56 0z"/>
<path d="M1954 3529 c-4 -8 0 -9 15 -4 11 3 21 2 21 -3 0 -5 -9 -12 -20 -15
-33 -8 -25 -37 10 -37 28 0 30 3 30 35 0 30 -3 35 -24 35 -14 0 -28 -5 -32
-11z m36 -39 c0 -5 -4 -10 -10 -10 -5 0 -10 5 -10 10 0 6 5 10 10 10 6 0 10
-4 10 -10z"/>
<path d="M2030 3506 c0 -20 5 -36 10 -36 6 0 10 11 10 24 0 14 5 28 10 31 6 4
10 -7 10 -24 0 -37 17 -41 22 -6 2 14 8 26 13 26 6 0 11 -12 13 -26 5 -37 24
-30 20 8 -3 31 -4 32 -55 35 l-53 3 0 -35z"/>
<path d="M2160 3490 c0 -27 5 -50 10 -50 6 0 10 7 10 15 0 8 9 15 19 15 22 0
34 25 26 51 -4 13 -16 19 -36 19 -28 0 -29 -1 -29 -50z m47 6 c-4 -9 -11 -16
-17 -16 -11 0 -14 33 -3 44 11 10 26 -11 20 -28z"/>
<path d="M2280 3505 c0 -19 5 -35 10 -35 6 0 10 16 10 35 0 19 -4 35 -10 35
-5 0 -10 -16 -10 -35z"/>
<path d="M2320 3506 c0 -42 17 -49 22 -9 4 39 28 42 28 4 0 -17 5 -31 11 -31
6 0 9 14 7 33 -3 28 -7 32 -35 35 -32 3 -33 2 -33 -32z"/>
<path d="M2414 3526 c-10 -27 1 -50 26 -56 15 -4 20 -9 13 -13 -6 -4 -18 -4
-27 -1 -9 3 -16 1 -16 -5 0 -6 13 -11 29 -11 32 0 41 14 41 66 0 31 -2 34 -30
34 -17 0 -33 -6 -36 -14z m41 -19 c0 -26 -20 -25 -23 2 -3 16 1 22 10 19 7 -3
13 -12 13 -21z"/>
<path d="M4317 3523 c-13 -13 -7 -30 16 -42 l22 -11 -24 6 c-17 4 -22 2 -19
-7 6 -19 36 -23 53 -9 17 15 11 28 -19 40 -21 9 -21 9 2 9 13 1 20 5 17 11 -7
11 -38 13 -48 3z"/>
<path d="M4397 3523 c-4 -3 -7 -19 -7 -34 0 -31 33 -50 53 -30 8 8 5 11 -11
11 -12 0 -22 5 -22 11 0 5 4 8 8 5 14 -9 35 12 29 28 -6 16 -38 22 -50 9z"/>
<path d="M4476 3523 c-21 -21 9 -83 34 -68 5 3 10 1 10 -5 0 -8 -9 -10 -25 -6
-30 8 -34 -10 -5 -19 32 -10 50 12 50 60 0 39 -2 42 -29 43 -16 0 -32 -2 -35
-5z m42 -30 c-5 -25 -28 -28 -28 -4 0 12 6 21 16 21 9 0 14 -7 12 -17z"/>
<path d="M4560 3487 c0 -23 4 -36 10 -32 6 3 10 17 10 31 0 13 5 24 10 24 6 0
10 -13 10 -30 0 -16 5 -30 10 -30 6 0 10 14 10 31 0 39 23 34 30 -7 4 -20 8
-25 13 -16 5 7 6 25 2 41 -6 27 -9 29 -56 28 l-49 -1 0 -39z"/>
<path d="M4692 3518 c-26 -26 0 -77 33 -64 23 9 18 25 -7 20 -20 -4 -19 -2 4
9 21 10 24 16 17 30 -12 20 -30 22 -47 5z m35 -14 c-3 -3 -12 -4 -19 -1 -8 3
-5 6 6 6 11 1 17 -2 13 -5z"/>
<path d="M4765 3522 c-9 -9 -5 -61 4 -67 5 -3 11 7 13 22 4 39 28 42 28 4 0
-17 5 -31 11 -31 6 0 9 16 7 38 -3 33 -6 37 -30 38 -15 1 -30 -1 -33 -4z"/>
<path d="M4901 3516 c-12 -14 -3 -26 29 -40 8 -3 5 -4 -7 -2 -23 4 -31 -8 -13
-19 16 -10 50 5 50 22 0 8 -9 17 -20 20 -11 3 -20 9 -20 14 0 5 7 5 17 2 11
-4 14 -3 9 5 -10 16 -31 15 -45 -2z"/>
<path d="M1712 3383 c-11 -21 -4 -93 9 -93 5 0 10 15 11 33 2 46 3 50 11 65 5
7 3 12 -7 12 -8 0 -19 -8 -24 -17z"/>
<path d="M4403 3365 c-11 -19 -4 -85 8 -85 5 0 9 14 9 30 0 17 5 30 11 30 8 0
8 4 0 14 -9 11 -9 15 1 19 8 4 7 6 -4 6 -9 1 -21 -6 -25 -14z"/>
<path d="M4490 3364 c0 -13 3 -14 14 -5 9 8 16 8 20 2 4 -5 2 -13 -4 -16 -8
-5 -8 -11 0 -20 16 -20 3 -40 -16 -24 -11 9 -14 8 -14 -5 0 -10 9 -16 24 -16
32 0 36 7 29 58 -5 36 -9 42 -29 42 -15 0 -24 -6 -24 -16z"/>
<path d="M1750 3334 c0 -18 5 -36 10 -39 6 -4 10 5 10 20 0 14 7 28 15 31 23
9 18 22 -10 22 -22 0 -25 -5 -25 -34z"/>
<path d="M1810 3350 c-8 -14 -8 -26 0 -40 18 -34 53 -23 58 19 6 40 -39 56
-58 21z"/>
<path d="M1894 3355 c-12 -30 0 -60 24 -59 12 0 22 -5 22 -13 0 -7 5 -13 10
-13 6 0 10 22 10 48 0 48 -1 49 -31 50 -17 0 -32 -5 -35 -13z m41 -25 c0 -7
-6 -15 -12 -17 -8 -3 -13 4 -13 17 0 13 5 20 13 18 6 -3 12 -11 12 -18z"/>
<path d="M1975 3357 c-12 -29 10 -65 39 -63 23 1 26 5 26 39 0 20 -4 37 -10
37 -5 0 -10 -14 -10 -31 0 -39 -23 -34 -31 7 -5 24 -7 26 -14 11z"/>
<path d="M2067 3364 c-4 -4 -7 -20 -7 -35 0 -19 6 -30 21 -34 28 -9 41 6 37
41 -3 28 -34 45 -51 28z m40 -50 c-3 -3 -12 -4 -19 -1 -8 3 -5 6 6 6 11 1 17
-2 13 -5z"/>
<path d="M2140 3329 c0 -21 5 -39 10 -39 6 0 10 14 10 30 0 20 5 30 15 30 10
0 15 -10 15 -30 0 -16 5 -30 11 -30 6 0 9 16 7 38 -3 34 -6 37 -35 39 -32 1
-33 0 -33 -38z"/>
<path d="M2230 3351 c-15 -29 4 -63 32 -59 30 4 36 29 6 26 -15 -2 -23 2 -23
12 0 10 8 14 23 12 30 -3 24 22 -6 26 -13 2 -25 -4 -32 -17z"/>
<path d="M2305 3353 c15 -39 17 -73 6 -73 -7 0 -9 -4 -6 -10 12 -20 26 -9 45
36 22 51 24 64 11 64 -5 0 -12 -12 -16 -27 l-7 -28 -10 28 c-5 15 -14 27 -20
27 -6 0 -7 -8 -3 -17z"/>
<path d="M4325 3347 c-10 -8 -16 -23 -13 -38 2 -19 9 -24 33 -24 25 0 31 4 33
27 4 34 -26 54 -53 35z m35 -26 c0 -23 -16 -36 -25 -21 -9 14 1 40 15 40 5 0
10 -9 10 -19z"/>
<path d="M4570 3345 c-13 -16 -6 -35 15 -35 8 0 17 -5 21 -11 5 -9 -1 -10 -22
-5 -22 6 -26 5 -18 -4 14 -14 56 -9 61 7 2 6 -8 19 -24 28 -24 14 -24 15 -5
12 25 -6 30 8 6 17 -21 8 -20 8 -34 -9z"/>
<path d="M5994 3252 c-6 -4 -23 -29 -38 -56 -21 -36 -31 -45 -37 -35 -7 11 -9
11 -9 -3 0 -9 -6 -15 -12 -14 -28 6 -48 19 -48 31 0 7 -7 18 -15 25 -13 11
-15 8 -15 -19 0 -39 -5 -39 -37 0 -40 47 -102 30 -118 -32 -5 -21 -12 -27 -33
-25 -15 0 -32 8 -39 17 -15 21 -53 31 -53 16 0 -7 -8 -3 -16 8 -11 13 -18 16
-21 8 -2 -7 -11 -9 -19 -6 -8 3 -14 0 -14 -6 0 -6 -9 -11 -20 -11 -14 0 -20 7
-20 21 0 15 -5 19 -15 15 -9 -3 -15 0 -15 9 0 22 -28 18 -40 -4 -5 -11 -10
-38 -10 -61 l0 -42 20 23 c19 22 21 23 31 6 5 -9 14 -15 20 -12 5 4 9 0 9 -8
0 -18 63 -43 68 -27 6 16 32 12 32 -5 0 -18 4 -19 30 -3 16 10 24 10 41 0 25
-16 56 -7 64 18 10 31 30 42 58 31 17 -7 27 -7 29 0 6 17 35 -1 48 -29 l12
-27 11 23 10 23 28 -27 29 -27 27 29 c16 16 36 41 46 55 14 18 28 25 52 25 32
0 34 -2 40 -43 4 -28 13 -47 26 -53 20 -11 24 -7 31 34 5 29 21 29 51 2 20
-18 27 -21 27 -10 0 9 7 14 18 12 9 -1 23 1 30 5 6 5 12 4 12 0 0 -5 12 -10
28 -11 15 -1 34 -11 42 -23 10 -13 22 -18 33 -13 9 3 17 2 17 -4 0 -23 42 3
55 34 8 19 21 34 29 34 9 0 16 5 16 10 0 20 21 10 30 -15 6 -15 15 -23 23 -19
8 3 17 -2 21 -11 10 -28 26 -6 26 38 0 33 -5 45 -22 57 -13 8 -27 14 -31 15
-4 0 -12 7 -17 15 -8 13 -11 13 -19 1 -5 -7 -13 -11 -18 -8 -5 3 -22 -10 -37
-28 -24 -28 -32 -32 -48 -24 -14 7 -20 6 -24 -6 -8 -21 -19 -19 -50 8 -14 12
-27 20 -28 17 -1 -3 -11 3 -21 13 -9 10 -23 16 -31 13 -7 -3 -15 0 -18 7 -2 7
-8 2 -11 -10 -7 -23 -25 -32 -25 -14 0 14 -42 9 -57 -5 -7 -7 -13 -17 -13 -23
0 -6 -4 -11 -8 -11 -15 0 -32 24 -32 45 -1 20 -30 68 -30 49 0 -5 -6 -1 -13 8
-7 9 -18 14 -23 10z"/>
<path d="M1797 3207 c-7 -19 9 -95 16 -77 14 32 14 90 2 90 -7 0 -15 -6 -18
-13z"/>
<path d="M1898 3206 c-22 -16 -23 -27 -3 -20 12 5 15 -2 15 -30 0 -20 5 -36
10 -36 6 0 10 23 10 50 0 53 -4 58 -32 36z"/>
<path d="M1964 3206 c-3 -8 -4 -29 -2 -48 2 -28 7 -33 28 -33 20 0 26 6 28 28
3 25 -5 33 -31 28 -5 -1 -7 4 -4 11 2 7 12 12 22 10 10 -2 14 1 10 7 -9 16
-45 13 -51 -3z m36 -51 c0 -8 -4 -15 -10 -15 -5 0 -10 7 -10 15 0 8 5 15 10
15 6 0 10 -7 10 -15z"/>
<path d="M2080 3170 c0 -27 5 -50 10 -50 6 0 10 8 10 18 1 15 2 15 15 -2 18
-24 30 -15 16 12 -7 13 -7 23 2 32 10 10 8 12 -10 7 -18 -4 -23 -1 -23 14 0
10 -4 19 -10 19 -5 0 -10 -22 -10 -50z"/>
<path d="M2160 3170 c0 -50 16 -70 22 -27 2 12 10 22 18 22 8 0 16 -10 18 -22
6 -43 22 -23 22 27 0 28 -4 50 -10 50 -5 0 -10 -9 -10 -20 0 -13 -7 -20 -20
-20 -13 0 -20 7 -20 20 0 11 -4 20 -10 20 -5 0 -10 -22 -10 -50z"/>
<path d="M1715 3184 c-19 -20 -16 -43 8 -58 20 -13 50 2 55 26 3 16 -23 48
-38 48 -5 0 -16 -7 -25 -16z m43 -27 c2 -10 -3 -17 -12 -17 -18 0 -29 16 -21
31 9 14 29 6 33 -14z"/>
<path d="M2263 3183 c21 -6 22 -17 2 -33 -25 -20 -17 -30 23 -30 34 1 36 2 18
15 -19 14 -19 15 -1 35 18 20 18 20 -21 19 -21 -1 -31 -3 -21 -6z"/>
<path d="M3091 3003 c0 -23 -5 -45 -11 -48 -5 -3 -10 -18 -11 -33 0 -24 -1
-25 -9 -7 -8 19 -9 18 -11 -5 -1 -21 -3 -19 -9 10 l-7 35 -3 -35 c-1 -19 -4
-27 -7 -17 -2 9 -9 15 -14 12 -5 -4 -9 3 -9 15 0 12 -4 18 -10 15 -5 -3 -10
-17 -10 -31 0 -27 -20 -34 -20 -6 -1 15 -2 15 -15 -2 -14 -19 -15 -18 -16 10
-1 29 -1 29 -9 4 -4 -14 -8 -20 -9 -13 -2 20 -42 1 -52 -25 -5 -14 -8 -72 -7
-130 3 -99 4 -105 20 -89 15 16 17 16 21 -1 4 -13 5 -11 6 6 0 12 7 22 14 22
8 0 19 -10 25 -22 9 -21 11 -18 11 20 1 53 21 47 22 -6 1 -37 1 -37 11 -9 12
33 21 34 36 5 10 -23 11 -23 11 5 1 20 6 27 21 27 11 0 20 -7 20 -15 0 -8 5
-15 10 -15 6 0 11 -30 11 -67 l2 -68 8 89 c9 86 19 127 19 73 0 -17 5 -27 15
-27 9 0 15 9 15 25 0 14 5 25 10 25 6 0 10 -9 10 -19 0 -29 18 -35 23 -9 3 16
5 12 6 -12 1 -24 4 -31 10 -21 7 11 9 11 14 0 3 -8 8 1 12 19 9 40 25 52 25
18 0 -14 5 -28 10 -31 6 -4 10 7 10 25 0 18 4 29 10 25 6 -3 10 -18 10 -33 l0
-27 19 24 c11 15 24 22 34 18 10 -4 17 0 20 11 3 9 5 2 6 -16 1 -19 5 -31 11
-27 6 3 10 -4 10 -17 0 -17 3 -19 9 -9 7 11 9 11 14 0 5 -16 12 9 25 101 9 63
9 62 11 -53 1 -76 5 -116 11 -112 6 3 10 17 10 29 0 27 39 44 52 23 4 -7 8 8
9 33 l2 45 7 -35 c4 -19 8 -29 9 -22 0 7 8 20 16 28 13 14 15 14 15 0 0 -29
30 -18 31 12 l0 27 11 -25 10 -25 9 23 c9 24 32 21 27 -3 -2 -8 0 -14 5 -14
23 -2 27 2 29 27 1 15 4 0 8 -33 l7 -60 2 55 c2 44 5 50 11 30 7 -20 8 -16 10
25 2 41 3 45 10 25 4 -14 8 -44 9 -67 1 -58 15 -60 31 -5 8 29 15 40 17 30 9
-35 23 -17 24 30 1 42 2 44 9 17 4 -16 9 -59 11 -95 l2 -65 7 65 c4 36 8 54 9
40 l3 -25 8 25 c7 22 8 20 10 -15 2 -35 3 -37 10 -15 l7 25 5 -30 c4 -25 5
-23 7 12 1 33 4 41 16 37 8 -4 15 -17 15 -31 0 -18 4 -24 15 -19 10 3 15 -1
16 -12 1 -9 5 -3 9 13 l8 30 1 -33 c1 -35 21 -36 21 0 0 11 9 31 20 45 17 22
20 41 20 127 0 61 -4 96 -9 87 -7 -11 -10 -10 -18 4 -8 14 -12 8 -18 -30 -9
-62 -25 -41 -25 33 0 28 -4 52 -10 52 -5 0 -10 -18 -10 -41 0 -22 -4 -38 -9
-35 -5 4 -12 0 -14 -6 -3 -7 -6 3 -7 22 l-1 35 -14 -25 c-8 -14 -14 -33 -15
-43 0 -31 -20 -7 -21 26 -1 25 -4 20 -11 -20 -12 -67 -28 -68 -28 -3 0 57 -14
66 -26 18 l-8 -33 -7 40 -6 40 -2 -41 c0 -22 -8 -49 -16 -60 -15 -18 -15 -15
-11 34 2 29 0 55 -5 57 -8 6 -26 -49 -32 -100 -3 -20 -4 -15 -6 15 0 26 -5 50
-10 55 -5 6 -11 19 -14 30 -3 11 -5 -2 -6 -29 -1 -41 -3 -47 -15 -37 -11 10
-15 8 -19 -6 -3 -10 -5 2 -6 27 -2 39 -4 42 -12 22 -5 -13 -7 -28 -4 -32 3 -5
1 -11 -4 -14 -5 -3 -11 8 -15 25 -7 35 -26 30 -26 -6 0 -13 -4 -27 -10 -30 -6
-4 -11 24 -12 77 -1 83 -1 83 -8 23 -6 -61 -16 -59 -23 5 -4 32 -4 32 -5 -8
-1 -24 -6 -41 -11 -37 -6 3 -12 -12 -14 -32 -3 -31 -4 -28 -6 17 -1 30 -5 49
-8 43 -9 -24 -33 -14 -35 15 -1 15 -5 -9 -8 -53 l-6 -80 -4 105 c-2 60 -5 85
-7 58 -2 -27 -8 -48 -14 -48 -5 0 -9 -9 -9 -20 0 -17 -3 -19 -19 -10 -27 14
-41 13 -41 -5 0 -8 -4 -16 -10 -16 -5 -1 -15 -2 -20 -3 -6 0 -15 -8 -20 -16
-8 -13 -11 -12 -24 5 -15 19 -15 18 -17 -20 l-1 -40 -10 43 c-9 43 -28 58 -28
23 0 -11 -4 -23 -10 -26 -6 -4 -10 6 -10 22 0 16 -4 33 -9 39 -5 5 -11 18 -14
29 -3 11 -6 -2 -7 -30 -2 -27 -5 -40 -7 -27 -4 22 -43 33 -43 12 0 -5 -4 -10
-9 -10 -9 0 -18 27 -30 100 l-8 45 -2 -42z"/>
<path d="M517 2930 c-4 -14 -7 -35 -7 -48 0 -13 -6 -30 -14 -38 -13 -12 -15
-10 -18 18 -4 32 -4 32 -14 9 -10 -22 -11 -22 -27 -7 -15 16 -17 15 -23 -9 -7
-29 -24 -24 -24 8 -1 19 -3 18 -15 -8 l-13 -30 -2 30 c-1 20 -4 25 -8 14 -4
-9 -17 -15 -30 -14 -17 1 -24 -5 -29 -24 l-7 -26 -7 25 c-9 32 -11 -130 -3
-194 7 -45 8 -46 25 -30 18 16 19 16 20 -2 1 -12 4 -8 8 9 l6 28 23 -21 22
-21 0 30 c0 48 20 48 21 -1 1 -24 3 -34 6 -23 7 30 20 40 36 26 12 -9 16 -7
21 13 7 27 36 26 36 0 0 -8 5 -14 10 -14 6 0 10 -30 10 -71 0 -85 19 -86 21
-1 1 31 5 71 9 87 l8 30 2 -30 c1 -16 4 -24 7 -17 2 6 9 10 14 6 5 -3 9 4 9
15 0 33 17 25 25 -11 l8 -33 7 30 c7 29 8 29 9 4 1 -36 28 -33 41 5 l12 31 10
-25 c10 -23 11 -23 15 -5 8 33 21 40 27 14 3 -13 7 -33 9 -44 3 -14 5 -12 6 8
1 26 4 29 34 31 6 1 15 8 19 16 4 8 7 -7 8 -35 1 -34 4 -44 9 -31 7 19 8 19
16 0 7 -18 8 -17 15 6 l8 25 2 -25 c1 -23 2 -23 10 -5 5 11 9 34 9 52 1 17 6
35 11 38 6 4 10 -23 10 -74 0 -47 4 -81 10 -81 6 0 10 9 10 20 0 27 42 44 52
21 4 -9 7 2 8 29 2 42 3 43 10 15 l8 -30 1 30 c1 23 3 27 11 15 9 -13 10 -13
10 0 1 8 6 4 12 -10 10 -22 12 -23 16 -6 3 15 6 16 13 5 6 -10 9 -7 10 11 0
22 2 21 14 -10 l13 -35 1 32 c1 41 21 54 21 14 0 -17 3 -31 6 -31 11 0 34 29
34 44 0 23 15 19 28 -6 10 -21 11 -19 11 17 2 55 21 25 21 -32 0 -53 17 -65
26 -18 6 33 24 59 24 36 0 -6 5 -11 10 -11 6 0 11 21 11 48 1 41 4 34 19 -48
l18 -95 1 63 c1 39 5 61 11 57 6 -3 10 -19 10 -36 0 -29 14 -40 23 -16 3 7 6
3 8 -8 1 -11 5 0 9 25 l6 45 15 -30 c14 -31 25 -36 47 -22 8 6 12 0 12 -19 0
-20 3 -25 11 -17 6 6 11 17 13 25 1 8 9 26 18 40 9 13 17 42 18 64 4 59 -1
151 -7 136 -4 -10 -8 -9 -18 4 -11 16 -13 13 -20 -25 -9 -55 -25 -36 -25 31 0
26 -4 50 -10 53 -6 4 -10 -10 -10 -35 0 -23 -4 -39 -9 -35 -5 3 -12 -9 -14
-27 -2 -18 -5 -4 -6 32 l-2 65 -19 -54 c-24 -68 -30 -73 -30 -30 l0 34 -14
-27 c-8 -15 -16 -35 -19 -45 -3 -10 -5 0 -6 22 -1 41 -21 89 -21 53 0 -10 -4
-18 -10 -18 -5 0 -11 -8 -11 -17 -1 -10 -5 0 -9 22 l-7 40 -2 -45 c-2 -73 -21
-86 -21 -15 0 54 -1 58 -16 43 -9 -8 -19 -40 -24 -69 -6 -45 -8 -48 -9 -18 0
20 -8 52 -16 70 l-14 34 -1 -42 c0 -44 -19 -61 -21 -20 -1 18 -3 16 -9 -8 l-8
-30 -1 37 c-1 47 -21 61 -22 16 l-1 -33 -12 27 -12 28 -13 -33 c-9 -22 -14
-27 -18 -17 -3 8 -12 20 -20 27 -8 6 -18 33 -23 60 l-8 48 -1 -47 c-1 -50 -15
-71 -26 -38 -5 16 -10 18 -19 11 -16 -13 -25 -5 -28 23 -1 12 -4 -13 -8 -54
l-6 -75 -3 80 c-3 77 -5 78 -26 18 -9 -27 -45 -31 -46 -5 0 14 -2 13 -11 -5
-11 -23 -38 -39 -38 -23 0 5 -7 7 -15 4 -8 -4 -15 -12 -15 -20 0 -20 -18 -17
-23 4 -3 9 -5 1 -6 -18 l-2 -35 -16 39 -16 38 -17 -22 c-17 -23 -17 -23 -24
21 -5 32 -9 40 -16 29 -5 -8 -10 -25 -10 -38 0 -13 -4 -20 -10 -17 -6 4 -8 11
-5 16 9 14 -24 23 -39 10 -11 -9 -15 -5 -20 24 -4 19 -11 35 -16 35 -5 0 -10
10 -12 23 -3 22 -4 21 -11 -3z m470 -122 c-3 -7 -5 -2 -5 12 0 14 2 19 5 13 2
-7 2 -19 0 -25z"/>
<path d="M2230 2875 l0 -35 -265 0 -265 0 0 -80 0 -80 265 0 265 0 0 -35 c0
-19 3 -35 8 -35 4 0 41 34 82 75 l74 75 -74 75 c-41 41 -78 75 -82 75 -5 0 -8
-16 -8 -35z"/>
<path d="M4810 2875 l0 -35 -265 0 -265 0 0 -80 0 -80 265 0 265 0 0 -36 c0
-23 4 -34 13 -32 6 2 43 36 81 76 l70 73 -74 74 c-41 41 -78 75 -82 75 -5 0
-8 -16 -8 -35z"/>
<path d="M5864 2834 c-5 -38 -10 -45 -25 -41 -10 3 -20 0 -23 -7 -3 -7 -9 -5
-16 7 -6 9 -15 15 -20 12 -5 -3 -12 -1 -15 5 -4 6 -15 8 -25 5 -10 -3 -20 0
-23 9 -6 15 -49 16 -98 2 -22 -6 -27 -4 -32 14 -4 17 -10 20 -31 14 -16 -4
-32 -1 -41 6 -10 9 -15 9 -15 1 0 -6 -5 -11 -11 -11 -6 0 -26 -12 -45 -27 -25
-18 -38 -23 -45 -16 -19 19 -49 -22 -49 -68 0 -40 1 -41 28 -34 15 3 31 13 35
21 5 8 12 12 17 9 5 -3 15 4 23 15 12 17 16 18 25 7 12 -14 46 -16 58 -4 12
12 24 8 24 -8 0 -8 5 -15 10 -15 6 0 10 7 10 15 0 22 18 18 31 -6 7 -13 14
-17 18 -11 3 6 19 14 35 18 23 6 32 2 47 -17 16 -20 20 -22 29 -9 12 19 52 22
65 6 14 -18 55 -2 62 23 7 26 35 36 49 17 9 -13 12 -13 27 2 16 15 17 15 17
-4 0 -28 10 -36 28 -21 11 9 16 9 19 0 7 -19 50 -62 57 -56 3 4 6 15 6 25 0
11 7 18 19 18 11 0 23 9 27 23 l8 22 6 -25 c4 -19 13 -25 33 -25 15 -1 27 3
27 7 0 4 5 8 10 8 6 0 10 -11 10 -25 0 -39 36 -31 59 12 6 13 20 27 30 33 16
8 21 4 35 -23 8 -17 16 -26 16 -18 0 7 6 11 14 8 8 -3 17 2 21 11 3 9 9 12 13
7 19 -26 93 -49 117 -36 11 6 18 8 40 10 11 1 15 14 15 51 0 40 -3 48 -15 44
-8 -4 -15 -1 -15 5 0 6 -4 11 -10 11 -5 0 -10 -12 -10 -26 0 -21 -3 -24 -21
-19 -13 5 -25 2 -30 -6 -6 -10 -13 -8 -29 11 -12 14 -26 36 -32 50 l-10 25
-18 -23 c-13 -15 -20 -18 -23 -10 -3 8 -6 6 -6 -4 -1 -20 -16 -24 -26 -8 -11
18 -47 11 -52 -11 -3 -12 -11 -18 -19 -15 -8 3 -14 1 -14 -5 0 -6 -7 -4 -15 5
-8 8 -15 21 -15 30 0 8 -4 18 -10 21 -5 3 -10 2 -10 -4 0 -16 -41 -34 -52 -23
-11 11 -68 -13 -68 -29 0 -18 -15 -9 -35 21 -22 33 -45 39 -45 13 -1 -16 -2
-16 -13 -2 -7 9 -20 15 -29 13 -9 -1 -19 4 -22 12 -3 8 -12 14 -21 14 -8 0
-15 5 -15 10 0 6 -4 10 -9 10 -6 0 -13 -21 -17 -46z"/>
<path d="M5414 2435 c-12 -31 -28 -41 -56 -36 -5 0 -8 -12 -8 -29 0 -16 2 -30
5 -30 19 0 55 36 60 59 6 29 31 35 57 13 11 -9 18 -9 27 1 10 9 15 9 18 0 2
-7 10 -10 17 -7 8 3 19 -10 29 -34 19 -48 40 -57 79 -37 17 8 34 12 39 9 5 -2
20 3 35 13 26 17 27 16 46 -10 22 -30 46 -35 55 -11 5 14 8 14 22 -5 l17 -22
29 29 c37 35 60 44 74 28 22 -26 88 -6 102 32 9 23 10 24 23 7 13 -18 14 -18
24 1 15 26 25 12 52 -73 17 -56 27 -73 41 -73 13 0 21 12 29 39 5 21 17 44 25
51 8 7 15 19 15 26 0 7 11 21 24 29 30 20 71 6 88 -30 12 -27 20 -30 47 -16
13 7 22 3 40 -20 13 -16 26 -29 30 -29 18 0 71 65 71 86 0 22 -2 23 -22 12
-13 -7 -26 -17 -30 -22 -12 -17 -49 -13 -63 7 -12 17 -17 18 -30 7 -18 -15
-42 0 -55 36 -11 28 -45 36 -68 15 -26 -22 -72 -97 -72 -116 0 -9 -10 -19 -22
-24 -25 -9 -22 -14 -64 102 -14 39 -19 45 -31 35 -11 -9 -17 -9 -24 3 -8 11
-15 8 -38 -20 -16 -18 -34 -30 -40 -27 -5 4 -26 7 -46 8 -19 1 -35 6 -35 11 0
6 -16 -7 -36 -27 -33 -34 -37 -36 -49 -20 -9 13 -20 15 -43 11 -24 -5 -34 -2
-45 13 -12 17 -16 18 -41 5 -16 -8 -32 -12 -37 -9 -5 3 -23 -4 -39 -16 -40
-28 -56 -21 -81 35 -22 49 -46 67 -60 44 -6 -11 -11 -11 -21 -1 -23 23 -48 14
-64 -23z"/>
<path d="M3030 1010 l0 -920 685 0 685 0 0 920 0 920 -685 0 -685 0 0 -920z
m1350 5 l0 -905 -665 0 -665 0 0 905 0 905 665 0 665 0 0 -905z"/>
<path d="M3153 1695 c-17 -7 -36 -22 -42 -34 -15 -27 -15 -425 0 -453 25 -46
45 -48 594 -48 576 0 573 0 600 64 21 50 21 372 0 422 -27 64 -24 64 -602 64
-418 -1 -524 -3 -550 -15z m1119 -33 c22 -22 23 -28 23 -226 0 -187 -2 -206
-19 -225 -19 -21 -23 -21 -569 -21 -498 0 -552 2 -569 17 -16 15 -18 35 -18
228 0 225 1 230 50 248 8 3 255 5 547 4 l532 -2 23 -23z"/>
<path d="M3442 1465 c-7 -14 -12 -37 -12 -50 0 -26 19 -75 29 -75 3 0 6 34 6
75 0 41 -3 75 -6 75 -3 0 -11 -11 -17 -25z"/>
<path d="M3555 1410 c0 -66 8 -76 24 -30 7 21 7 39 0 60 -16 46 -24 36 -24
-30z"/>
<path d="M3630 1460 c0 -5 5 -10 10 -10 6 0 10 -16 10 -35 0 -24 5 -35 15 -35
10 0 15 10 15 34 0 21 6 36 15 40 12 4 15 -3 15 -35 0 -45 13 -55 54 -39 24 9
27 15 24 47 l-3 38 -77 3 c-49 2 -78 -1 -78 -8z m135 -35 c0 -10 -6 -20 -12
-22 -8 -3 -13 5 -13 22 0 17 5 25 13 23 6 -3 12 -13 12 -23z"/>
<path d="M3800 1425 c0 -33 4 -45 15 -45 8 0 15 8 15 18 1 16 1 16 14 0 23
-31 36 -21 36 27 0 45 -20 66 -21 23 l0 -23 -16 23 c-26 37 -43 28 -43 -23z"/>
<path d="M3900 1425 c0 -25 5 -45 10 -45 6 0 10 7 10 17 0 15 1 15 18 0 31
-28 42 -21 42 28 0 33 -4 45 -15 45 -8 0 -15 -7 -15 -17 0 -15 -1 -15 -18 0
-28 25 -32 21 -32 -28z"/>
<path d="M3487 1443 c-10 -17 -2 -68 11 -67 42 3 43 4 40 37 -2 24 -8 33 -25
35 -11 2 -23 0 -26 -5z"/>
<path d="M3171 846 c-45 -25 -50 -49 -51 -244 0 -202 6 -230 57 -251 21 -8
171 -11 555 -9 l528 3 27 28 28 27 0 201 0 201 -33 29 -32 29 -528 0 c-418 -1
-532 -3 -551 -14z m1083 -17 c38 -18 46 -58 46 -229 0 -171 -8 -211 -46 -229
-18 -8 -178 -11 -545 -11 l-520 0 -24 25 c-25 24 -25 26 -25 215 0 189 0 191
25 215 l24 25 520 0 c367 0 527 -3 545 -11z"/>
<path d="M3392 635 c-15 -32 -15 -65 -2 -99 12 -31 34 -36 25 -5 -4 12 -7 36
-7 54 0 18 3 42 7 54 9 30 -9 26 -23 -4z"/>
<path d="M3432 593 c2 -37 7 -47 23 -49 46 -7 63 50 20 66 -14 5 -25 14 -25
20 0 5 -5 10 -11 10 -6 0 -9 -19 -7 -47z m39 -16 c-1 -12 -15 -9 -19 4 -3 6 1
10 8 8 6 -3 11 -8 11 -12z"/>
<path d="M3515 580 c0 -59 7 -76 19 -44 10 26 7 69 -7 88 -10 14 -12 8 -12
-44z"/>
<path d="M3590 589 c0 -31 4 -48 10 -44 6 3 10 13 10 21 0 22 27 17 33 -7 9
-35 27 -11 27 37 0 45 -17 61 -27 24 -3 -11 -10 -20 -15 -20 -5 0 -12 9 -15
20 -10 38 -23 20 -23 -31z"/>
<path d="M3682 594 c3 -43 6 -49 27 -52 13 -2 28 1 34 7 8 8 5 11 -10 11 -18
0 -22 7 -25 37 -2 20 -9 38 -16 41 -10 3 -12 -8 -10 -44z"/>
<path d="M3740 630 c0 -6 6 -10 14 -10 10 0 16 -13 18 -37 2 -21 8 -38 13 -38
6 0 11 17 13 38 4 50 32 52 32 2 0 -41 19 -53 56 -37 27 13 34 61 12 80 -17
13 -158 15 -158 2z m140 -34 c0 -14 -5 -28 -10 -31 -13 -8 -24 20 -16 40 9 24
26 17 26 -9z"/>
<path d="M3920 596 c0 -48 18 -72 27 -37 l6 22 14 -21 c8 -11 19 -18 24 -15
12 8 12 95 -1 95 -5 0 -10 -10 -10 -22 l-1 -23 -18 23 c-29 34 -41 27 -41 -22z"/>
<path d="M4017 633 c-11 -10 -8 -81 3 -88 6 -3 14 4 19 16 l8 23 12 -22 c19
-36 31 -25 31 28 0 48 -19 74 -21 28 l0 -23 -16 23 c-16 23 -25 27 -36 15z"/>
<path d="M5870 1790 c0 -11 -4 -20 -10 -20 -5 0 -19 -18 -30 -40 -11 -22 -27
-40 -35 -40 -23 0 -25 -14 -5 -58 l19 -42 95 0 94 0 16 47 c9 26 16 54 16 64
0 25 -55 30 -98 7 -32 -16 -102 -25 -102 -13 0 2 5 16 12 30 10 21 18 25 57
25 33 0 42 -3 31 -10 -12 -8 -9 -10 13 -10 35 0 34 6 -8 46 -39 38 -65 44 -65
14z m37 -16 c-3 -3 -12 -4 -19 -1 -8 3 -5 6 6 6 11 1 17 -2 13 -5z m73 -84
l-45 -7 38 -1 c40 -2 42 -7 27 -46 -9 -25 -12 -26 -98 -26 -85 0 -89 1 -100
25 -7 14 -12 28 -12 30 0 3 24 5 53 5 30 1 60 7 71 15 12 9 39 14 65 13 l46
-1 -45 -7z"/>
<path d="M5845 1650 c-4 -6 -3 -16 3 -22 6 -6 12 -6 17 2 4 6 3 16 -3 22 -6 6
-12 6 -17 -2z"/>
<path d="M5895 1650 c-8 -13 4 -32 16 -25 12 8 12 35 0 35 -6 0 -13 -4 -16
-10z"/>
<path d="M5947 1654 c-13 -13 -7 -24 14 -24 11 0 19 5 17 12 -5 14 -22 21 -31
12z"/>
<path d="M1540 1689 l0 -79 195 0 195 0 0 -190 0 -190 55 0 55 0 0 264 0 263
-219 -3 c-120 -2 -233 1 -250 6 l-31 9 0 -80z"/>
<path d="M5250 1731 c-5 -11 -10 -31 -10 -44 0 -46 62 -75 90 -42 18 21 6 29
-20 13 -18 -11 -23 -11 -36 6 -18 25 -18 41 1 60 13 13 20 13 35 4 21 -13 36
-6 25 11 -11 19 -73 13 -85 -8z"/>
<path d="M5377 1713 c-13 -13 -7 -21 13 -16 29 8 25 -6 -6 -17 -39 -15 -28
-44 19 -48 35 -3 37 -2 37 27 0 16 -3 36 -6 45 -6 16 -45 22 -57 9z m33 -53
c0 -5 -7 -10 -16 -10 -8 0 -12 5 -9 10 3 6 10 10 16 10 5 0 9 -4 9 -10z"/>
<path d="M5460 1675 c0 -25 5 -45 10 -45 6 0 10 11 10 24 0 14 7 31 15 40 21
20 19 26 -10 26 -23 0 -25 -4 -25 -45z"/>
<path d="M5536 1713 c-11 -12 -6 -73 7 -75 6 0 17 -2 22 -2 6 -1 10 -6 10 -11
0 -6 -10 -9 -22 -7 -13 1 -23 -2 -23 -7 0 -16 38 -23 60 -11 16 9 20 21 20 64
l0 53 -34 1 c-18 1 -36 -2 -40 -5z m49 -38 c0 -28 -29 -25 -33 3 -3 19 0 23
15 20 10 -2 18 -12 18 -23z"/>
<path d="M5642 1708 c-7 -7 -12 -21 -12 -33 0 -47 62 -63 81 -21 22 47 -33 90
-69 54z m56 -31 c4 -20 -25 -34 -40 -19 -15 15 -1 44 19 40 10 -2 19 -11 21
-21z"/>
<path d="M5860 1710 c0 -5 7 -10 15 -10 8 0 15 5 15 10 0 6 -7 10 -15 10 -8 0
-15 -4 -15 -10z"/>
<path d="M2340 1525 c0 -51 3 -65 15 -65 10 0 15 11 16 38 l1 37 10 -37 c6
-21 16 -38 23 -38 7 0 17 17 23 38 l10 37 1 -37 c1 -27 6 -38 16 -38 12 0 15
14 15 65 0 58 -2 65 -20 65 -14 0 -22 -11 -31 -42 l-12 -43 -14 43 c-10 30
-20 42 -34 42 -17 0 -19 -8 -19 -65z"/>
<path d="M2670 1569 c0 -16 -4 -19 -20 -14 -28 9 -50 -11 -50 -45 0 -35 17
-49 58 -48 l32 1 0 64 c0 35 -4 63 -10 63 -5 0 -10 -9 -10 -21z m-6 -44 c8
-21 -3 -45 -20 -45 -8 0 -17 7 -20 15 -8 21 2 45 20 45 7 0 16 -7 20 -15z"/>
<path d="M2810 1525 c0 -51 3 -65 15 -65 12 0 15 14 15 65 0 51 -3 65 -15 65
-12 0 -15 -14 -15 -65z"/>
<path d="M2502 1548 c-7 -7 -12 -24 -12 -38 0 -31 17 -50 45 -50 28 0 45 19
45 50 0 31 -17 50 -45 50 -12 0 -26 -5 -33 -12z m53 -38 c0 -29 -32 -41 -41
-16 -9 24 4 48 23 44 12 -2 18 -12 18 -28z"/>
<path d="M2722 1548 c-7 -7 -12 -24 -12 -38 0 -47 44 -67 71 -33 13 15 11 16
-13 10 -15 -4 -30 -3 -33 3 -4 6 6 10 24 10 23 0 31 5 31 18 0 22 -19 42 -40
42 -9 0 -21 -5 -28 -12z m43 -18 c3 -5 -3 -10 -15 -10 -12 0 -18 5 -15 10 3 6
10 10 15 10 5 0 12 -4 15 -10z"/>
<path d="M2077 1464 c-4 -42 -7 -112 -7 -156 0 -64 3 -78 16 -78 13 0 15 19
13 145 -2 80 -6 150 -9 156 -4 5 -10 -24 -13 -67z"/>
<path d="M1265 1519 c-22 -3 62 -7 188 -8 125 0 227 2 227 7 0 8 -358 10 -415
1z"/>
<path d="M2340 1325 c0 -51 3 -65 15 -65 12 0 15 14 15 65 0 51 -3 65 -15 65
-12 0 -15 -14 -15 -65z"/>
<path d="M2726 1375 c-9 -10 -15 -23 -12 -31 3 -7 8 -29 12 -48 4 -26 11 -36
25 -36 11 0 19 5 19 10 0 6 -4 10 -10 10 -15 0 -12 57 3 63 8 4 9 8 1 14 -6 4
-13 14 -15 22 -4 11 -8 10 -23 -4z"/>
<path d="M2390 1309 c0 -37 4 -49 15 -49 11 0 15 11 15 41 0 33 3 40 18 37 12
-2 18 -14 20 -41 5 -55 24 -45 20 11 l-3 47 -42 2 -43 2 0 -50z"/>
<path d="M2500 1288 c0 -39 4 -68 10 -68 6 0 10 12 10 26 0 21 3 24 20 19 28
-9 50 11 50 45 0 35 -17 49 -58 48 l-32 -1 0 -69z m65 22 c0 -28 -29 -40 -38
-15 -9 22 3 46 22 43 10 -2 16 -13 16 -28z"/>
<path d="M2612 1313 l3 -48 43 -2 42 -2 0 50 c0 37 -4 49 -15 49 -11 0 -15
-11 -15 -41 0 -33 -3 -40 -17 -37 -13 2 -19 14 -21 41 -5 55 -24 45 -20 -10z"/>
<path d="M6550 1303 c0 -7 -11 -13 -25 -13 -17 0 -25 -5 -25 -17 0 -15 10 -18
60 -18 49 -1 60 2 58 15 -2 8 -14 17 -28 19 -14 1 -28 8 -32 15 -6 8 -8 8 -8
-1z"/>
<path d="M950 1248 l0 -48 230 1 c127 1 233 -1 236 -4 3 -3 5 -102 4 -221 0
-188 1 -216 15 -216 13 0 15 34 15 265 l0 264 -250 3 -250 3 0 -47z"/>
<path d="M1740 1140 c0 -130 2 -150 16 -150 13 0 15 13 10 98 -3 53 -5 121 -6
150 0 28 -4 52 -10 52 -6 0 -10 -57 -10 -150z"/>
<path d="M5247 1273 c-4 -3 -7 -33 -7 -65 0 -45 3 -58 15 -58 9 0 15 9 15 25
0 19 5 25 23 25 45 0 65 50 28 70 -22 11 -64 13 -74 3z m61 -35 c-7 -19 -38
-22 -38 -4 0 10 9 16 21 16 12 0 19 -5 17 -12z"/>
<path d="M6210 1215 c0 -66 16 -91 22 -33 4 43 26 48 30 7 5 -49 28 -49 28 0
0 41 -20 64 -47 54 -8 -3 -13 4 -13 16 0 12 -4 21 -10 21 -6 0 -10 -28 -10
-65z"/>
<path d="M6310 1265 c0 -9 5 -15 11 -13 6 2 11 8 11 13 0 5 -5 11 -11 13 -6 2
-11 -4 -11 -13z"/>
<path d="M5364 1234 c-18 -15 -18 -15 9 -11 33 5 35 -5 5 -18 -13 -6 -23 -19
-23 -30 0 -16 7 -20 38 -22 37 -1 37 -1 37 38 0 28 -5 41 -19 49 -25 13 -24
13 -47 -6z m36 -54 c0 -5 -4 -10 -10 -10 -5 0 -10 5 -10 10 0 6 5 10 10 10 6
0 10 -4 10 -10z"/>
<path d="M5468 1243 c-27 -7 -22 -42 7 -53 33 -13 32 -24 -1 -16 -19 5 -25 3
-22 -6 7 -19 53 -21 68 -4 10 13 10 19 0 31 -7 8 -19 15 -26 15 -8 0 -14 4
-14 9 0 5 9 7 20 4 24 -6 27 12 4 21 -9 3 -16 5 -17 5 -1 -1 -10 -3 -19 -6z"/>
<path d="M5555 1236 c-16 -12 -17 -16 -6 -30 7 -9 19 -16 27 -16 7 0 16 -5 20
-11 4 -8 -4 -9 -27 -4 -31 7 -32 6 -20 -9 8 -10 25 -16 40 -14 35 4 38 51 4
56 -13 2 -23 8 -23 13 0 5 12 7 28 4 26 -6 26 -6 8 9 -24 19 -27 20 -51 2z"/>
<path d="M5656 1237 c-22 -16 -24 -65 -5 -78 22 -14 45 -11 60 8 13 15 11 16
-13 10 -15 -4 -30 -3 -33 3 -4 6 7 10 25 10 37 0 39 24 4 46 -17 12 -23 12
-38 1z m29 -17 c3 -5 -1 -10 -10 -10 -9 0 -13 5 -10 10 3 6 8 10 10 10 2 0 7
-4 10 -10z"/>
<path d="M5763 1242 c-20 -3 -23 -10 -23 -48 0 -50 17 -60 22 -12 4 43 26 48
30 7 5 -49 28 -49 28 0 0 44 -17 60 -57 53z"/>
<path d="M5856 1238 c-18 -10 -22 -63 -6 -73 8 -5 8 -11 1 -19 -14 -17 -4 -26
29 -26 37 0 50 18 50 71 0 44 -2 47 -29 51 -17 2 -37 0 -45 -4z m42 -40 c-2
-13 -7 -23 -13 -23 -5 0 -11 10 -13 23 -2 15 2 22 13 22 11 0 15 -7 13 -22z
m2 -48 c0 -5 -8 -10 -17 -10 -15 0 -16 2 -3 10 19 12 20 12 20 0z"/>
<path d="M5962 1234 c-25 -17 -29 -56 -7 -74 17 -14 65 -6 65 11 0 7 -10 9
-25 5 -14 -4 -25 -2 -25 4 0 5 11 10 25 10 18 0 25 5 25 20 0 29 -32 42 -58
24z m33 -14 c3 -5 -1 -10 -10 -10 -9 0 -13 5 -10 10 3 6 8 10 10 10 2 0 7 -4
10 -10z"/>
<path d="M6063 1242 c-20 -3 -23 -9 -23 -49 0 -52 23 -57 28 -5 2 20 9 32 18
32 15 0 20 16 7 22 -5 2 -18 2 -30 0z"/>
<path d="M6123 1243 c-22 -8 -14 -43 12 -53 36 -14 31 -23 -7 -14 -29 6 -31 5
-19 -10 17 -20 55 -21 71 -1 10 12 10 18 0 30 -7 8 -19 15 -26 15 -8 0 -14 4
-14 9 0 5 9 7 20 4 24 -6 27 12 4 21 -18 7 -23 7 -41 -1z"/>
<path d="M6383 1242 c-21 -3 -23 -9 -23 -63 0 -33 4 -59 10 -59 6 0 10 6 10
14 0 7 14 16 30 20 26 5 30 10 30 40 0 39 -19 55 -57 48z m37 -41 c0 -11 -5
-23 -11 -27 -15 -9 -33 12 -26 30 9 23 37 20 37 -3z"/>
<path d="M6505 1236 c-22 -7 -39 -16 -38 -20 1 -3 4 -20 8 -36 4 -20 13 -30
26 -31 10 -1 34 -3 52 -4 51 -3 71 4 85 32 17 37 15 42 -10 52 -45 17 -84 19
-123 7z"/>
<path d="M6310 1194 c0 -59 24 -55 28 4 2 33 0 42 -12 42 -12 0 -16 -11 -16
-46z"/>
<path d="M6460 1120 c0 -3 45 -7 100 -7 55 0 100 3 100 7 0 3 -45 6 -100 7
-55 0 -100 -3 -100 -7z"/>
<path d="M690 1043 l0 -73 230 0 230 0 0 -195 0 -195 25 0 25 0 -2 266 -3 266
-252 1 -253 2 0 -72z"/>
<path d="M2878 1083 l-3 -28 -230 -2 c-126 -1 -236 -3 -242 -3 -9 0 -13 -21
-13 -70 l0 -70 243 -2 242 -3 5 -33 5 -33 70 71 69 70 -64 65 c-35 36 -68 65
-72 65 -3 0 -8 -12 -10 -27z"/>
<path d="M4908 1083 l-3 -28 -234 -2 c-129 -1 -238 -6 -243 -11 -5 -5 -8 -36
-6 -68 l3 -59 240 -5 240 -5 5 -33 5 -33 70 71 69 70 -64 65 c-35 36 -68 65
-72 65 -3 0 -8 -12 -10 -27z"/>
<path d="M1487 994 c-4 -42 -7 -112 -7 -156 0 -64 3 -78 16 -78 13 0 15 19 13
145 -2 80 -6 150 -9 156 -4 5 -10 -24 -13 -67z"/>
<path d="M420 821 l0 -71 240 0 240 0 0 -200 c0 -172 2 -200 15 -200 13 0 15
34 13 267 l-3 266 -80 -3 c-156 -5 -403 -3 -414 4 -8 5 -11 -14 -11 -63z"/>
<path d="M1237 883 c-4 -3 -7 -73 -7 -155 0 -126 2 -148 15 -148 13 0 15 20 9
153 -4 83 -8 153 -9 155 -1 1 -5 -1 -8 -5z"/>
<path d="M5967 804 c-4 -4 -7 -20 -7 -36 0 -42 -24 -62 -65 -55 -28 5 -35 2
-40 -14 -8 -25 2 -38 11 -15 5 13 23 16 111 16 75 0 102 -3 97 -11 -5 -8 -38
-10 -103 -7 -53 3 -85 1 -71 -3 31 -9 154 -9 195 0 l30 7 -32 14 c-30 13 -33
19 -33 58 0 45 -23 69 -41 41 -6 -10 -3 -15 12 -17 16 -3 20 -10 17 -35 -3
-29 -6 -31 -40 -33 -37 -1 -38 0 -38 34 0 27 3 33 16 28 11 -4 14 -1 12 11 -3
18 -20 27 -31 17z"/>
<path d="M5236 751 c-3 -5 3 -11 14 -14 15 -4 19 -15 22 -53 4 -63 22 -63 26
-1 2 30 8 50 18 54 8 3 14 9 14 14 0 12 -87 12 -94 0z"/>
<path d="M5536 753 c-10 -10 -7 -111 3 -118 6 -3 14 3 20 12 9 17 11 17 25 -2
19 -27 30 -14 15 18 -9 21 -9 30 1 42 10 12 10 15 -2 15 -8 0 -19 -5 -26 -12
-9 -9 -12 -6 -12 14 0 27 -12 43 -24 31z"/>
<path d="M5335 710 c-4 -6 6 -10 22 -11 l28 -1 -28 -11 c-20 -8 -27 -17 -25
-32 2 -16 10 -20 38 -19 36 0 38 4 32 69 -2 17 -57 21 -67 5z m45 -50 c0 -5
-7 -10 -16 -10 -8 0 -12 5 -9 10 3 6 10 10 16 10 5 0 9 -4 9 -10z"/>
<path d="M5430 676 c0 -52 17 -63 22 -13 4 45 31 43 39 -3 4 -26 7 -31 13 -18
4 9 6 29 4 45 -3 24 -8 28 -40 31 l-38 3 0 -45z"/>
<path d="M5630 700 c-6 -12 -8 -30 -5 -40 10 -32 75 -39 75 -9 0 6 -9 8 -19 4
-11 -3 -22 -1 -26 5 -4 6 4 10 18 10 31 0 38 9 26 31 -13 25 -55 24 -69 -1z
m47 -6 c-3 -3 -12 -4 -19 -1 -8 3 -5 6 6 6 11 1 17 -2 13 -5z"/>
<path d="M5728 713 c-2 -5 -3 -21 -3 -38 0 -41 19 -48 23 -7 2 20 9 32 18 32
8 0 14 5 14 10 0 12 -47 14 -52 3z"/>
<path d="M180 398 l0 -268 250 0 250 0 0 265 0 264 -250 3 -250 3 0 -267z
m196 152 c0 -24 -11 -26 -20 -4 -3 9 -11 12 -18 8 -10 -6 -10 -4 0 8 17 21 38
14 38 -12z m65 7 c-13 -13 -26 -3 -16 12 3 6 11 8 17 5 6 -4 6 -10 -1 -17z
m109 14 c0 -5 3 -16 6 -25 4 -11 1 -16 -11 -16 -9 0 -13 5 -10 10 3 6 -1 10
-9 10 -17 0 -21 12 -9 23 10 10 33 8 33 -2z m-314 -15 c15 -16 18 -26 6 -26
-4 0 -13 9 -20 20 -14 23 -7 26 14 6z m258 -2 c8 -21 8 -21 -13 -27 -26 -6
-33 1 -20 24 12 23 25 24 33 3z"/>
<path d="M967 653 c-4 -3 -7 -73 -7 -155 0 -127 2 -148 16 -148 13 0 14 18 8
153 -4 83 -8 153 -9 155 -1 1 -5 -1 -8 -5z"/>
<path d="M6083 639 c-7 -7 -47 -10 -111 -7 -55 1 -98 0 -95 -4 2 -5 48 -8 102
-8 75 0 101 4 111 15 14 17 9 20 -7 4z"/>
<path d="M717 364 c-4 -42 -7 -112 -7 -156 0 -64 3 -78 16 -78 13 0 15 19 13
145 -2 80 -6 150 -9 156 -4 5 -10 -24 -13 -67z"/>
<path d="M5808 285 c-3 -3 -3 -26 0 -50 3 -30 1 -45 -7 -45 -6 0 -11 7 -11 15
0 11 -12 15 -45 15 -38 0 -45 -3 -45 -20 0 -17 -7 -20 -41 -20 -33 0 -40 -3
-35 -16 3 -9 6 -24 6 -35 0 -18 9 -19 143 -19 l143 0 22 30 c28 37 28 44 -2
36 -20 -5 -25 -2 -28 16 -2 18 -11 24 -35 26 -28 3 -33 0 -33 -18 0 -13 -4
-19 -11 -14 -7 4 -9 25 -7 55 5 45 0 58 -14 44z"/>
<path d="M5253 223 c13 -3 17 -15 17 -53 0 -27 5 -52 10 -55 6 -4 10 13 10 45
0 43 3 52 23 60 17 7 11 9 -28 8 -27 0 -42 -2 -32 -5z"/>
<path d="M5335 186 c-4 -10 -4 -30 1 -45 8 -21 16 -26 42 -26 31 0 32 1 32 43
0 49 -17 57 -22 10 -4 -46 -31 -44 -39 2 -5 29 -7 32 -14 16z"/>
<path d="M5447 193 c-4 -3 -7 -19 -7 -34 0 -30 24 -50 49 -41 8 3 12 -1 9 -9
-3 -9 -16 -13 -32 -11 -18 2 -25 -1 -21 -7 10 -17 62 -13 69 5 3 9 6 36 6 60
0 43 -1 44 -33 44 -19 0 -37 -3 -40 -7z m51 -36 c-2 -11 -9 -22 -15 -25 -16
-4 -27 22 -19 43 8 22 38 6 34 -18z"/>
</g>
</svg>
